<?xml version="1.0" encoding="UTF-8"?>
<svg xmlns="http://www.w3.org/2000/svg" xmlns:xlink="http://www.w3.org/1999/xlink" width="65px" height="65px" viewBox="0 0 65 65" version="1.1">
<defs>
<linearGradient id="linear0" gradientUnits="userSpaceOnUse" x1="68.841797" y1="28.893801" x2="10.0538" y2="74.823997" gradientTransform="matrix(0.249147,0,0,0.249147,16.940791,14.805134)">
<stop offset="0" style="stop-color:rgb(100%,86.666667%,0%);stop-opacity:1;"/>
<stop offset="0.9" style="stop-color:rgb(83.137255%,62.352941%,0%);stop-opacity:1;"/>
<stop offset="1" style="stop-color:rgb(100%,86.666667%,0%);stop-opacity:1;"/>
</linearGradient>
<linearGradient id="linear1" gradientUnits="userSpaceOnUse" x1="70.016098" y1="75.860298" x2="27.217699" y2="75.860298" gradientTransform="matrix(0.249147,0,0,0.249147,16.940791,14.805134)">
<stop offset="0" style="stop-color:rgb(83.137255%,62.352941%,0%);stop-opacity:1;"/>
<stop offset="1" style="stop-color:rgb(67.058824%,34.509804%,3.137255%);stop-opacity:1;"/>
</linearGradient>
<linearGradient id="linear2" gradientUnits="userSpaceOnUse" x1="55.927799" y1="62.2183" x2="114.8193" y2="16.372499" gradientTransform="matrix(0.249147,0,0,0.249147,16.940791,14.805134)">
<stop offset="0" style="stop-color:rgb(0%,32.54902%,49.411765%);stop-opacity:1;"/>
<stop offset="0.9" style="stop-color:rgb(9.411765%,66.666667%,88.627451%);stop-opacity:1;"/>
<stop offset="1" style="stop-color:rgb(6.27451%,48.235294%,75.294118%);stop-opacity:1;"/>
</linearGradient>
<linearGradient id="linear3" gradientUnits="userSpaceOnUse" x1="91.803703" y1="-4.211" x2="66.793602" y2="15.329" gradientTransform="matrix(0.249147,0,0,0.249147,16.940791,14.805134)">
<stop offset="0" style="stop-color:rgb(0%,14.509804%,25.882353%);stop-opacity:1;"/>
<stop offset="1" style="stop-color:rgb(0%,25.490196%,41.176471%);stop-opacity:1;"/>
</linearGradient>
</defs>
<g id="surface1">
<path style=" stroke:none;fill-rule:evenodd;fill:url(#linear0);" d="M 24.839844 37.527344 L 23.84375 37.527344 C 23.042969 37.527344 22.324219 37.152344 21.847656 36.554688 L 17.113281 30.476562 C 17.015625 30.328125 16.941406 30.152344 16.941406 29.953125 C 16.941406 29.753906 17.015625 29.578125 17.113281 29.429688 L 21.875 23.351562 C 22.347656 22.753906 23.042969 22.378906 23.867188 22.378906 L 34.382812 22.378906 L 28.402344 29.878906 L 24.042969 35.382812 Z M 24.839844 37.527344 "/>
<path style=" stroke:none;fill-rule:evenodd;fill:url(#linear1);" d="M 28.476562 29.953125 L 28.425781 29.878906 L 24.042969 35.382812 C 23.867188 35.609375 23.71875 35.90625 23.71875 36.40625 C 23.71875 36.90625 24.191406 37.527344 25.136719 37.527344 L 34.382812 37.527344 Z M 28.476562 29.953125 "/>
<path style=" stroke:none;fill-rule:evenodd;fill:url(#linear2);" d="M 40.933594 16.949219 L 40.136719 14.804688 L 41.132812 14.804688 C 41.929688 14.804688 42.652344 15.179688 43.125 15.777344 L 47.886719 21.855469 C 47.984375 22.003906 48.058594 22.179688 48.058594 22.378906 C 48.058594 22.578125 47.984375 22.753906 47.886719 22.902344 L 43.101562 28.980469 C 42.628906 29.578125 41.929688 29.953125 41.109375 29.953125 L 30.59375 29.953125 L 36.574219 22.453125 Z M 40.933594 16.949219 "/>
<path style=" stroke:none;fill-rule:evenodd;fill:url(#linear3);" d="M 36.523438 22.378906 L 36.574219 22.453125 L 40.933594 16.949219 C 41.109375 16.722656 41.257812 16.425781 41.257812 15.925781 C 41.257812 15.429688 40.785156 14.804688 39.835938 14.804688 L 30.59375 14.804688 Z M 36.523438 22.378906 "/>
<path style=" stroke:none;fill-rule:nonzero;fill:rgb(4.313725%,73.333333%,93.72549%);fill-opacity:1;" d="M 41.183594 16.847656 C 41.355469 16.625 41.457031 16.375 41.457031 16.074219 C 41.457031 15.378906 40.882812 14.804688 40.1875 14.804688 L 39.863281 14.804688 C 40.558594 14.804688 41.109375 15.378906 41.109375 16.074219 C 41.109375 16.375 41.007812 16.648438 40.832031 16.847656 L 36.523438 22.378906 L 30.617188 29.929688 Z M 41.183594 16.847656 "/>
<path style=" stroke:none;fill-rule:nonzero;fill:rgb(100%,83.529412%,0%);fill-opacity:1;" d="M 23.816406 35.484375 C 23.644531 35.707031 23.542969 35.957031 23.542969 36.257812 C 23.542969 36.953125 24.117188 37.527344 24.8125 37.527344 L 25.136719 37.527344 C 24.441406 37.527344 23.867188 36.953125 23.867188 36.257812 C 23.867188 35.957031 23.964844 35.683594 24.140625 35.484375 L 28.476562 29.953125 L 34.382812 22.402344 Z M 23.816406 35.484375 "/>
<path style=" stroke:none;fill-rule:nonzero;fill:rgb(2.352941%,25.490196%,41.568627%);fill-opacity:1;" d="M 31.257812 42.113281 C 30.859375 42.113281 30.542969 42.164062 30.210938 42.265625 C 29.675781 42.433594 29.277344 42.714844 28.976562 43.113281 C 28.460938 43.78125 28.476562 44.582031 28.476562 44.582031 L 28.476562 50.144531 L 29.960938 50.144531 C 30.058594 50.144531 30.125 50.0625 30.125 49.976562 L 30.125 44.699219 C 30.125 44.597656 30.144531 44.230469 30.34375 44.046875 C 30.507812 43.898438 30.726562 43.832031 30.941406 43.796875 C 31.175781 43.765625 31.410156 43.78125 31.527344 43.796875 C 31.527344 43.796875 31.542969 43.796875 31.558594 43.796875 C 31.675781 43.796875 31.757812 43.730469 31.808594 43.648438 L 32.574219 42.332031 C 32.175781 42.183594 31.742188 42.097656 31.257812 42.113281 "/>
<path style=" stroke:none;fill-rule:nonzero;fill:rgb(2.352941%,25.490196%,41.568627%);fill-opacity:1;" d="M 26.894531 42.113281 C 26.496094 42.113281 26.160156 42.164062 25.84375 42.265625 C 25.3125 42.433594 24.910156 42.714844 24.613281 43.113281 C 24.09375 43.78125 24.113281 44.582031 24.113281 44.582031 L 24.113281 50.144531 L 25.59375 50.144531 C 25.695312 50.144531 25.761719 50.0625 25.761719 49.976562 L 25.761719 44.699219 C 25.761719 44.597656 25.777344 44.230469 25.976562 44.046875 C 26.144531 43.898438 26.359375 43.832031 26.578125 43.796875 C 26.8125 43.765625 27.042969 43.78125 27.160156 43.796875 C 27.160156 43.796875 27.175781 43.796875 27.195312 43.796875 C 27.292969 43.796875 27.394531 43.730469 27.445312 43.648438 L 28.226562 42.316406 C 27.792969 42.183594 27.378906 42.097656 26.894531 42.113281 "/>
<path style=" stroke:none;fill-rule:nonzero;fill:rgb(2.352941%,25.490196%,41.568627%);fill-opacity:1;" d="M 13.933594 48.097656 C 13.882812 48.027344 13.785156 47.980469 13.683594 47.980469 C 13.632812 47.980469 13.566406 47.996094 13.535156 48.027344 C 13.035156 48.328125 12.433594 48.511719 11.800781 48.511719 C 9.933594 48.511719 8.417969 46.996094 8.417969 45.113281 C 8.417969 43.246094 9.933594 41.730469 11.800781 41.730469 C 12.433594 41.730469 13.035156 41.898438 13.535156 42.214844 C 13.582031 42.25 13.632812 42.265625 13.699219 42.265625 C 13.800781 42.265625 13.882812 42.214844 13.949219 42.148438 L 14.800781 41.050781 C 13.96875 40.433594 12.933594 40.066406 11.800781 40.066406 C 9.003906 40.066406 6.738281 42.332031 6.738281 45.128906 C 6.738281 47.929688 9.003906 50.195312 11.800781 50.195312 C 12.917969 50.195312 13.949219 49.828125 14.800781 49.210938 Z M 13.933594 48.097656 "/>
<path style=" stroke:none;fill-rule:nonzero;fill:rgb(2.352941%,25.490196%,41.568627%);fill-opacity:1;" d="M 36.441406 43.597656 C 37.539062 43.597656 38.472656 44.3125 38.804688 45.296875 L 34.089844 45.296875 C 34.425781 44.3125 35.355469 43.597656 36.441406 43.597656 M 36.441406 42 C 34.191406 42 32.359375 43.832031 32.359375 46.078125 C 32.359375 48.3125 34.191406 50.144531 36.441406 50.160156 C 36.472656 50.160156 36.554688 50.160156 36.554688 50.160156 C 37.4375 50.160156 38.15625 50.046875 39.105469 49.429688 L 39.253906 49.328125 C 39.253906 49.328125 38.421875 48.246094 38.40625 48.230469 C 38.355469 48.164062 38.253906 48.113281 38.171875 48.113281 C 38.121094 48.113281 38.074219 48.128906 38.023438 48.144531 C 37.804688 48.261719 37.15625 48.546875 36.441406 48.546875 C 35.355469 48.546875 34.441406 47.863281 34.089844 46.894531 L 40.339844 46.894531 C 40.4375 46.894531 40.503906 46.8125 40.503906 46.730469 L 40.519531 46.261719 C 40.519531 46.195312 40.519531 46.148438 40.519531 46.078125 C 40.539062 43.832031 38.707031 42 36.441406 42 Z M 36.441406 42 "/>
<path style=" stroke:none;fill-rule:nonzero;fill:rgb(2.352941%,25.490196%,41.568627%);fill-opacity:1;" d="M 41.652344 50.179688 C 41.554688 50.179688 41.488281 50.113281 41.488281 50.011719 L 41.488281 42.433594 C 41.488281 42.347656 41.554688 42.265625 41.652344 42.265625 L 42.96875 42.265625 C 43.070312 42.265625 43.136719 42.347656 43.136719 42.433594 L 43.136719 50.011719 C 43.136719 50.113281 43.054688 50.179688 42.96875 50.179688 Z M 41.652344 50.179688 "/>
<path style=" stroke:none;fill-rule:nonzero;fill:rgb(2.352941%,25.490196%,41.568627%);fill-opacity:1;" d="M 19.179688 43.566406 C 17.816406 43.566406 16.714844 44.664062 16.714844 46.03125 C 16.714844 47.394531 17.816406 48.496094 19.179688 48.496094 C 20.546875 48.496094 21.648438 47.394531 21.648438 46.03125 C 21.648438 44.664062 20.546875 43.566406 19.179688 43.566406 M 19.179688 50.179688 C 16.898438 50.179688 15.050781 48.328125 15.050781 46.046875 C 15.050781 43.765625 16.898438 41.914062 19.179688 41.914062 C 21.464844 41.914062 23.3125 43.765625 23.3125 46.046875 C 23.3125 48.3125 21.464844 50.179688 19.179688 50.179688 Z M 19.179688 50.179688 "/>
<path style=" stroke:none;fill-rule:nonzero;fill:rgb(2.352941%,25.490196%,41.568627%);fill-opacity:1;" d="M 48.066406 43.632812 C 46.71875 43.632812 45.617188 44.730469 45.617188 46.078125 C 45.617188 47.429688 46.71875 48.511719 48.066406 48.511719 C 49.417969 48.511719 50.515625 47.414062 50.515625 46.078125 C 50.515625 44.730469 49.417969 43.632812 48.066406 43.632812 M 48.066406 50.160156 C 45.800781 50.160156 43.96875 48.328125 43.96875 46.0625 C 43.96875 43.796875 45.800781 41.964844 48.066406 41.964844 C 50.332031 41.964844 52.164062 43.796875 52.164062 46.0625 C 52.164062 48.328125 50.332031 50.160156 48.066406 50.160156 Z M 48.066406 50.160156 "/>
<path style=" stroke:none;fill-rule:nonzero;fill:rgb(2.352941%,25.490196%,41.568627%);fill-opacity:1;" d="M 56.8125 45.445312 C 56.53125 45.3125 56.164062 45.230469 55.765625 45.128906 C 55.179688 44.980469 54.632812 44.945312 54.429688 44.628906 C 54.25 44.332031 54.347656 43.996094 54.597656 43.816406 C 55.179688 43.414062 55.964844 43.582031 56.398438 43.78125 C 56.480469 43.816406 56.796875 43.996094 56.796875 43.996094 C 56.847656 44.03125 56.898438 44.046875 56.945312 44.046875 C 57.046875 44.046875 57.128906 43.996094 57.195312 43.914062 C 57.195312 43.914062 58.03125 42.847656 58.03125 42.847656 L 57.898438 42.730469 C 57.8125 42.664062 57.695312 42.597656 57.582031 42.53125 C 57.332031 42.398438 56.582031 41.964844 55.496094 41.964844 C 55.464844 41.964844 55.429688 41.964844 55.398438 41.964844 C 53.015625 42.015625 52.683594 43.699219 52.683594 44.296875 C 52.683594 45.195312 53.148438 45.847656 53.847656 46.246094 C 54.414062 46.5625 55.464844 46.746094 55.996094 46.914062 C 56.28125 46.996094 56.480469 47.195312 56.5625 47.378906 C 56.597656 47.460938 56.613281 47.546875 56.613281 47.644531 C 56.628906 47.960938 56.464844 48.3125 55.996094 48.460938 C 55.480469 48.613281 54.679688 48.546875 53.949219 47.980469 C 53.933594 47.960938 53.847656 47.894531 53.816406 47.878906 C 53.78125 47.863281 53.75 47.863281 53.699219 47.863281 C 53.597656 47.863281 53.515625 47.914062 53.449219 47.996094 C 53.433594 48.011719 52.632812 49.046875 52.632812 49.046875 C 52.632812 49.046875 52.914062 49.277344 53.015625 49.34375 C 53.480469 49.695312 54.316406 50.160156 55.398438 50.160156 L 55.429688 50.160156 C 57.730469 50.160156 58.261719 48.527344 58.261719 47.628906 C 58.261719 46.730469 57.714844 45.847656 56.8125 45.445312 "/>
</g>
</svg>
